<?xml version="1.0" standalone="no"?>
<!DOCTYPE svg PUBLIC "-//W3C//DTD SVG 20010904//EN"
 "http://www.w3.org/TR/2001/REC-SVG-20010904/DTD/svg10.dtd">
<svg version="1.0" xmlns="http://www.w3.org/2000/svg"
 width="1024.000000pt" height="1024.000000pt" viewBox="0 0 1024.000000 1024.000000"
 preserveAspectRatio="xMidYMid meet">
<metadata>
Created by potrace 1.11, written by Peter Selinger 2001-2013
</metadata>
<g transform="translate(0.000000,1024.000000) scale(0.100000,-0.100000)"
fill="#000000" stroke="none">
<path d="M6830 9225 c-10 -28 2 -75 47 -175 39 -88 97 -237 136 -350 45 -129
128 -402 147 -480 5 -19 18 -69 29 -110 41 -147 77 -323 86 -415 1 -11 5 -42
9 -70 13 -91 15 -109 23 -210 15 -188 7 -644 -12 -745 -2 -12 -7 -48 -10 -79
-4 -31 -8 -63 -10 -71 -3 -8 -7 -31 -10 -50 -65 -405 -189 -775 -363 -1088
l-29 -53 -69 58 c-196 165 -765 736 -1159 1163 -33 35 -73 79 -90 96 -16 17
-60 64 -96 105 -37 41 -77 86 -90 100 -13 14 -51 56 -84 93 -33 38 -67 76 -76
85 -8 9 -40 45 -70 80 -30 36 -61 72 -69 80 -91 95 -876 1063 -985 1215 -11
16 -25 33 -30 40 -6 6 -42 54 -80 106 -38 52 -74 100 -78 105 -4 6 -76 100
-158 210 -83 110 -156 206 -162 212 -10 10 -21 7 -54 -12 l-42 -25 87 -183
c106 -221 406 -823 500 -1002 78 -150 163 -308 202 -380 158 -288 359 -643
421 -742 22 -34 39 -64 39 -67 0 -2 55 -93 122 -202 207 -339 226 -373 194
-342 -7 7 -69 65 -137 128 -140 130 -564 553 -744 741 -136 142 -339 359 -368
392 -10 12 -46 51 -80 87 -58 62 -198 215 -235 258 -10 11 -46 52 -82 92 -36
40 -73 82 -83 94 -31 36 -121 138 -132 150 -35 37 -372 433 -426 501 -9 11
-43 52 -75 91 -75 91 -96 117 -147 182 -23 28 -46 52 -51 52 -15 0 -76 -41
-76 -51 0 -43 268 -560 578 -1114 24 -44 58 -105 75 -135 119 -215 512 -887
584 -997 13 -20 11 -23 -46 -53 -142 -76 -282 -227 -357 -385 -37 -78 -82
-193 -169 -430 -12 -33 -93 -249 -180 -480 -87 -231 -166 -442 -176 -470 -31
-92 -110 -300 -125 -332 -8 -17 -14 -36 -14 -41 0 -24 -21 -19 -96 19 -319
163 -609 350 -904 583 -84 66 -180 146 -195 162 -5 6 -50 47 -100 91 -49 44
-106 95 -125 112 -70 65 -117 74 -137 28 -15 -35 7 -93 127 -331 266 -527 591
-981 1015 -1421 99 -103 97 -100 86 -126 -26 -62 -382 -1011 -418 -1114 -119
-342 -37 -710 216 -963 31 -31 66 -64 77 -72 229 -171 485 -230 764 -175 31 6
44 8 245 40 88 14 171 28 185 30 14 2 70 11 125 20 55 9 114 18 130 21 17 3
44 7 60 10 17 2 55 9 85 14 49 8 119 19 160 25 29 4 115 18 135 21 19 4 44 8
110 19 17 3 75 12 130 21 55 8 111 17 125 20 14 2 41 7 60 9 19 3 44 7 55 10
17 3 190 31 325 51 19 3 98 16 175 29 77 13 163 27 190 31 28 3 59 8 70 10 11
3 36 7 55 10 19 2 58 9 85 14 28 5 68 12 90 15 42 6 81 12 130 20 17 3 46 8
65 11 19 2 46 7 60 9 14 3 43 7 65 11 32 4 200 31 365 59 14 2 81 13 150 24
130 20 141 22 255 40 279 45 430 116 588 278 74 77 118 138 163 227 l34 70 58
-3 c265 -10 491 -77 656 -195 124 -89 321 -342 385 -496 69 -165 83 -183 143
-184 38 -1 44 3 68 39 46 68 88 251 120 523 19 157 -3 630 -34 723 -3 8 -7 32
-10 54 -14 103 -88 361 -154 535 -44 117 -63 162 -131 300 l-47 96 32 71 c57
126 175 468 198 575 3 12 14 61 25 108 59 256 85 501 85 810 0 164 -11 407
-19 433 -2 7 -6 41 -9 77 -7 70 -9 88 -32 225 -8 50 -17 104 -20 120 -9 53
-54 258 -70 315 -135 483 -286 866 -491 1240 -161 293 -473 739 -718 1025 -72
84 -440 455 -475 478 -38 26 -79 22 -90 -8z m-2690 -3680 c9 -6 62 -68 118
-140 57 -71 116 -146 131 -165 28 -35 209 -263 266 -335 17 -21 35 -43 40 -49
6 -6 33 -40 60 -76 28 -35 60 -76 72 -90 12 -14 125 -155 252 -315 214 -269
229 -290 208 -298 -56 -22 -383 -89 -504 -104 l-43 -5 -1 38 c-1 22 -3 48 -4
59 -1 11 -5 52 -9 90 -3 39 -8 90 -11 115 -3 25 -7 72 -10 105 -9 103 -16 169
-21 205 -29 215 -198 361 -418 360 -239 -2 -422 -122 -474 -314 -16 -57 -8
-198 16 -296 47 -191 82 -343 80 -345 -4 -2 -256 39 -332 55 -46 9 -57 15 -53
28 3 10 44 123 92 252 47 129 161 438 251 685 91 248 173 469 182 492 22 55
69 75 112 48z m-845 -2797 c61 -35 132 -77 159 -92 80 -46 354 -181 461 -227
114 -49 122 -53 92 -55 -18 -2 -94 -14 -312 -50 -16 -3 -46 -7 -65 -10 -19 -2
-75 -11 -125 -20 -49 -8 -102 -17 -117 -20 -36 -5 -85 -14 -123 -20 -38 -7
-267 -42 -322 -50 -36 -6 -45 -3 -67 19 -14 14 -26 36 -26 48 0 12 46 146 102
298 55 152 105 286 109 299 l9 23 57 -39 c32 -21 108 -68 168 -104z"/>
</g>
</svg>
